<svg width="74" height="73" viewBox="0 0 74 73" fill="none" xmlns="http://www.w3.org/2000/svg">
<path fill-rule="evenodd" clip-rule="evenodd" d="M63.0625 28.1329C62.4768 29.0827 61.2321 29.3778 60.2823 28.7921L37.0987 14.4956L13.9151 28.7921C12.9653 29.3778 11.7206 29.0827 11.135 28.1329C10.5493 27.1832 10.8444 25.9385 11.7942 25.3528L36.0383 10.4023C36.6884 10.0014 37.509 10.0014 38.1592 10.4023L53.2615 19.7154V14.1424C53.2615 13.0266 54.1661 12.1221 55.2819 12.1221C56.3977 12.1221 57.3022 13.0266 57.3022 14.1424V22.2072L62.4033 25.3528C63.353 25.9385 63.6481 27.1832 63.0625 28.1329ZM53.2615 54.5492V32.3255C53.2615 31.2097 54.1661 30.3051 55.2819 30.3051C56.3977 30.3051 57.3022 31.2097 57.3022 32.3255V54.5492C57.3022 57.8955 54.5875 60.6103 51.2412 60.6103H22.9564C19.6102 60.6103 16.8954 57.8955 16.8954 54.5492V32.3255C16.8954 31.2097 17.7999 30.3051 18.9157 30.3051C20.0315 30.3051 20.9361 31.2097 20.9361 32.3255V54.5492C20.9361 55.6639 21.8418 56.5696 22.9564 56.5696H51.2412C52.3559 56.5696 53.2615 55.6639 53.2615 54.5492ZM45.1802 36.3662C45.1802 34.1346 43.3711 32.3255 41.1395 32.3255H33.0581C30.8265 32.3255 29.0174 34.1346 29.0174 36.3662V44.4475C29.0174 46.6791 30.8265 48.4882 33.0581 48.4882H41.1395C43.3711 48.4882 45.1802 46.6791 45.1802 44.4475V36.3662ZM33.0581 36.3662V44.4475H41.1395V36.3662H33.0581Z" fill="#343F48"/>
</svg>
