<svg width="74" height="74" viewBox="0 0 74 74" fill="none" xmlns="http://www.w3.org/2000/svg">
<path fill-rule="evenodd" clip-rule="evenodd" d="M49.2206 63.0952H24.9766C21.6303 63.0952 18.9155 60.3804 18.9155 57.0341V16.6273C18.9155 13.281 21.6303 10.5663 24.9766 10.5663H49.2206C52.5669 10.5663 55.2817 13.281 55.2817 16.6273V57.0341C55.2817 60.3804 52.5669 63.0952 49.2206 63.0952ZM49.2206 59.0545C50.3353 59.0545 51.241 58.1488 51.241 57.0341V16.6273C51.241 15.5127 50.3353 14.607 49.2206 14.607H44.1764C44.1764 16.2807 42.8196 17.6375 41.1459 17.6375H33.0582C31.3845 17.6375 30.0277 16.2807 30.0277 14.607H24.9766C23.8619 14.607 22.9562 15.5127 22.9562 16.6273V57.0341C22.9562 58.1488 23.8619 59.0545 24.9766 59.0545M35.0783 55.0138H39.1189C40.2347 55.0138 41.1393 54.1093 41.1393 52.9935C41.1393 51.8776 40.2347 50.9731 39.1189 50.9731H35.0783C33.9625 50.9731 33.0579 51.8776 33.0579 52.9935C33.0579 54.1093 33.9625 55.0138 35.0783 55.0138Z" fill="#343F48"/>
</svg>
