<svg width="53" height="53" viewBox="0 0 53 53" fill="none" xmlns="http://www.w3.org/2000/svg">
<path fill-rule="evenodd" clip-rule="evenodd" d="M4.07144 4.14237V14.2441C4.07144 15.3599 3.16691 16.2644 2.0511 16.2644C0.935299 16.2644 0.0307617 15.3599 0.0307617 14.2441V4.14237C0.0307617 1.91095 1.83878 0.101685 4.07144 0.101685H14.1732C15.289 0.101685 16.1935 1.00622 16.1935 2.12203C16.1935 3.23783 15.289 4.14237 14.1732 4.14237H4.07144ZM38.4172 4.14237H48.519V14.2441C48.519 15.3599 49.4235 16.2644 50.5393 16.2644C51.6551 16.2644 52.5596 15.3599 52.5596 14.2441V4.14237C52.5596 1.91095 50.7516 0.101685 48.519 0.101685H38.4172C37.3014 0.101685 36.3969 1.00622 36.3969 2.12203C36.3969 3.23783 37.3014 4.14237 38.4172 4.14237ZM11.6477 16.2644V20.3051C11.6477 21.6999 12.7784 22.8305 14.1732 22.8305C15.5679 22.8305 16.6986 21.6999 16.6986 20.3051V16.2644C16.6986 14.8697 15.5679 13.739 14.1732 13.739C12.7784 13.739 11.6477 14.8697 11.6477 16.2644ZM26.2952 28.3865V18.2848C26.2952 17.169 27.1997 16.2644 28.3155 16.2644C29.4313 16.2644 30.3359 17.169 30.3359 18.2848V28.3865C30.3359 30.6179 28.5279 32.4271 26.2952 32.4271H24.2749C23.1591 32.4271 22.2545 31.5226 22.2545 30.4068C22.2545 29.291 23.1591 28.3865 24.2749 28.3865H26.2952ZM16.7778 35.7757C17.5626 34.9826 18.8418 34.9759 19.6349 35.7608C23.3106 39.3982 29.2798 39.3982 32.9555 35.7608C33.7486 34.9759 35.0278 34.9826 35.8126 35.7757C36.5975 36.5688 36.5908 37.848 35.7977 38.6329C30.5475 43.8284 22.0429 43.8284 16.7927 38.6329C15.9996 37.848 15.9929 36.5688 16.7778 35.7757ZM35.8918 20.3051V16.2644C35.8918 14.8697 37.0225 13.739 38.4172 13.739C39.812 13.739 40.9427 14.8697 40.9427 16.2644V20.3051C40.9427 21.6999 39.812 22.8305 38.4172 22.8305C37.0225 22.8305 35.8918 21.6999 35.8918 20.3051ZM14.1732 48.5899H4.07144V38.4882C4.07144 37.3724 3.16691 36.4678 2.0511 36.4678C0.935299 36.4678 0.0307617 37.3724 0.0307617 38.4882V48.5899C0.0307617 50.8213 1.83878 52.6306 4.07144 52.6306H14.1732C15.289 52.6306 16.1935 51.726 16.1935 50.6102C16.1935 49.4944 15.289 48.5899 14.1732 48.5899ZM48.519 48.5899V38.4882C48.519 37.3724 49.4235 36.4678 50.5393 36.4678C51.6551 36.4678 52.5596 37.3724 52.5596 38.4882V48.5899C52.5596 50.8213 50.7516 52.6306 48.519 52.6306H38.4172C37.3014 52.6306 36.3969 51.726 36.3969 50.6102C36.3969 49.4944 37.3014 48.5899 38.4172 48.5899H48.519Z" fill="#07E897"/>
</svg>
