<svg width="73" height="74" viewBox="0 0 73 74" fill="none" xmlns="http://www.w3.org/2000/svg">
<path fill-rule="evenodd" clip-rule="evenodd" d="M44.5941 20.7796L57.9908 15.0382C59.324 14.4668 60.807 15.4447 60.807 16.8951V53.2613C60.807 54.0695 60.3254 54.7999 59.5825 55.1183L45.4402 61.1793C44.8939 61.4134 44.2723 61.3951 43.7408 61.1294L28.5452 53.5315L15.3416 61.0765C13.9947 61.8461 12.3188 60.8736 12.3188 59.3223V22.9562C12.3188 22.148 12.8005 21.4175 13.5433 21.0992L27.6857 15.0382C28.1643 14.8331 28.7035 14.8206 29.191 15.0034L44.5941 20.7796ZM45.4402 24.8131C44.9616 25.0182 44.4224 25.0306 43.9349 24.8478L28.5318 19.0717L16.3595 24.2883V55.8409L27.4792 49.4868C28.0657 49.1516 28.7809 49.1318 29.3851 49.4339L44.7097 57.0962L56.7664 51.9291V19.959L45.4402 24.8131ZM26.4612 26.9967V43.1595C26.4612 44.2753 27.3658 45.1798 28.4816 45.1798C29.5974 45.1798 30.5019 44.2753 30.5019 43.1595V26.9967C30.5019 25.8809 29.5974 24.9764 28.4816 24.9764C27.3658 24.9764 26.4612 25.8809 26.4612 26.9967ZM42.624 33.0578V49.2205C42.624 50.3363 43.5285 51.2408 44.6443 51.2408C45.7601 51.2408 46.6646 50.3363 46.6646 49.2205V33.0578C46.6646 31.942 45.7601 31.0374 44.6443 31.0374C43.5285 31.0374 42.624 31.942 42.624 33.0578Z" fill="#343F48"/>
</svg>
