<svg width="74" height="73" viewBox="0 0 74 73" fill="none" xmlns="http://www.w3.org/2000/svg">
<path fill-rule="evenodd" clip-rule="evenodd" d="M56.4357 60.7173C57.94 61.183 59.3751 59.8251 58.9932 58.2973L56.1508 46.9277C60.8993 37.6496 59.4046 26.8712 51.9545 19.419C42.4858 9.95245 27.1351 9.95245 17.6668 19.4186C8.35809 28.7295 8.20295 43.7278 17.201 53.228L17.6668 53.7066C25.1543 61.192 37.2606 62.8739 46.5888 58.1516L47.1681 57.8481L56.4357 60.7173ZM20.524 22.2758C28.4141 14.3876 41.2068 14.3876 49.0973 22.2762C55.4455 28.6262 56.579 37.806 52.2333 45.6901C51.987 46.1369 51.9189 46.6604 52.0427 47.1553L54.2029 55.7962L47.529 53.7299C46.9832 53.561 46.3914 53.631 45.9001 53.9227C38.1636 58.5158 27.5479 57.4391 20.9662 51.2772L20.5238 50.8492C12.6354 42.9588 12.6355 30.1662 20.524 22.2758ZM36.8195 40.8132C36.9328 39.7255 37.0716 39.4294 37.5353 38.9944L37.92 38.6557L38.4547 38.2049C41.0255 36.0133 42.261 34.0298 42.261 31.3486C42.261 27.0317 39.0491 23.4308 34.81 23.4308C30.4077 23.4308 26.7287 26.2811 26.7287 30.502C26.7287 31.6178 27.6332 32.5224 28.749 32.5224C29.7851 32.5224 30.639 31.7424 30.7557 30.7376L30.7693 30.502C30.7693 28.7707 32.4463 27.4715 34.81 27.4715C36.7081 27.4715 38.2204 29.1669 38.2204 31.3486C38.2204 32.6218 37.5918 33.6307 35.8348 35.1286L35.307 35.5736C35.091 35.7567 34.9278 35.9002 34.7708 36.0474C33.574 37.1702 33.0115 38.3704 32.8006 40.3943C32.6849 41.5041 33.4908 42.4975 34.6006 42.6132C35.7104 42.7289 36.7038 41.923 36.8195 40.8132ZM37.1335 48.685V47.6748C37.1335 46.3916 36.0933 45.3514 34.8101 45.3514C33.5269 45.3514 32.4867 46.3916 32.4867 47.6748V48.685C32.4867 49.9681 33.5269 51.0084 34.8101 51.0084C36.0933 51.0084 37.1335 49.9681 37.1335 48.685Z" fill="#343F48"/>
</svg>
