<svg width="74" height="73" viewBox="0 0 74 73" fill="none" xmlns="http://www.w3.org/2000/svg">
<path fill-rule="evenodd" clip-rule="evenodd" d="M55.282 14.3394C56.3978 14.3394 57.3023 15.244 57.3023 16.3598V41.1958C57.3023 47.799 53.7222 53.8833 47.9495 57.0901L38.0801 62.5733C37.47 62.9123 36.7281 62.9124 36.1179 62.5734L26.2461 57.09C20.4751 53.8829 16.8955 47.7984 16.8955 41.1958V16.3598C16.8955 15.244 17.8 14.3394 18.9158 14.3394H55.282ZM20.9362 18.3801V41.1958C20.9362 46.3311 23.7204 51.0637 28.2086 53.5579L37.0988 58.4961L45.9872 53.5579C50.4771 51.0637 53.2617 46.3315 53.2617 41.1958V18.3801H20.9362ZM24.9763 24.441V36.5631C24.9763 37.6789 25.8809 38.5834 26.9967 38.5834C28.1125 38.5834 29.017 37.6789 29.017 36.5631V26.4599H40.1391C40.6913 26.4599 41.1391 26.0122 41.1391 25.4599V23.4207C41.1391 22.8684 40.6975 22.4207 40.1452 22.4207C37.0802 22.4207 27.9241 22.4207 26.9967 22.4207C25.8809 22.4207 24.9763 23.3252 24.9763 24.441Z" fill="#343F48"/>
</svg>
