<svg width="778" height="110" viewBox="0 0 778 110" fill="none" xmlns="http://www.w3.org/2000/svg">
<path d="M496.12 80.1428C495.304 81.1346 494.164 82.1136 492.686 83.0796C491.209 84.0457 489.473 84.9215 487.478 85.6944C485.469 86.4672 483.24 87.1112 480.765 87.6136C478.291 88.1159 475.647 88.3606 472.822 88.3606C467.432 88.3606 462.547 87.5878 458.167 86.0293C453.788 84.4707 450.043 82.2424 446.946 79.3571C443.849 76.4719 441.439 72.9297 439.716 68.7564C437.992 64.5831 437.137 59.856 437.137 54.562C437.137 49.6417 437.979 45.1335 439.677 41.0246C441.374 36.9157 443.772 33.3735 446.907 30.3852C450.043 27.3969 453.814 25.0784 458.219 23.4297C462.638 21.781 467.562 20.9567 473.017 20.9567C478.213 20.9567 482.657 21.6007 486.35 22.8759C490.043 24.151 492.868 25.4777 494.799 26.8431V43.0855C493.801 41.6557 492.557 40.2517 491.093 38.8864C489.616 37.5211 487.957 36.3103 486.117 35.2412C484.264 34.185 482.23 33.322 480.014 32.678C477.785 32.0211 475.453 31.6991 473.017 31.6991C469.453 31.6991 466.227 32.2658 463.337 33.3735C460.461 34.4941 458.012 36.0527 456.016 38.0363C454.008 40.0328 452.479 42.4414 451.417 45.2752C450.354 48.1089 449.823 51.2389 449.823 54.6651C449.823 57.8337 450.302 60.8091 451.274 63.5784C452.246 66.3478 453.684 68.7564 455.589 70.8173C457.494 72.8653 459.891 74.5012 462.78 75.7248C465.657 76.9356 468.974 77.5796 472.732 77.644C475.608 77.644 478.252 77.3349 480.662 76.7037C483.072 76.0855 485.262 75.2482 487.231 74.1791C489.201 73.1229 490.937 71.8735 492.44 70.4438C493.943 69.014 495.161 67.4555 496.107 65.781V80.1428H496.12Z" fill="#07E897"/>
<path d="M521.867 76.6007H557.565V87.3431H510.127V21.9742H521.867V76.6007Z" fill="#07E897"/>
<path d="M560.468 54.562C560.468 49.6417 561.297 45.1335 562.956 41.0246C564.614 36.9157 566.972 33.3735 570.043 30.3852C573.114 27.3969 576.807 25.0784 581.122 23.4297C585.437 21.781 590.296 20.9567 595.687 20.9567C600.947 20.9567 605.755 21.7295 610.108 23.288C614.462 24.8466 618.168 27.0749 621.239 29.9602C624.31 32.8583 626.681 36.3876 628.379 40.5609C630.063 44.7342 630.918 49.4613 630.918 54.7553C630.918 59.6756 630.089 64.1838 628.43 68.2927C626.772 72.4016 624.401 75.9438 621.343 78.9321C618.272 81.9204 614.566 84.2389 610.212 85.8876C605.858 87.5363 601.025 88.3606 595.699 88.3606C590.439 88.3606 585.631 87.6007 581.278 86.0679C576.924 84.548 573.218 82.3325 570.147 79.4344C567.076 76.5363 564.705 72.9941 563.007 68.7951C561.31 64.596 560.468 59.856 560.468 54.562ZM572.868 54.6522C572.868 57.8208 573.348 60.8091 574.319 63.6171C575.291 66.4122 576.743 68.8466 578.686 70.8946C580.63 72.9426 583.027 74.5784 585.878 75.8021C588.728 77.0129 592.032 77.6183 595.79 77.6183C599.302 77.6183 602.437 77.0515 605.223 75.9309C608.009 74.8103 610.393 73.2517 612.363 71.2681C614.332 69.2717 615.849 66.863 616.924 64.0293C617.987 61.1955 618.518 58.0656 618.518 54.6393C618.518 51.4707 618.025 48.4824 617.067 45.6745C616.095 42.8794 614.643 40.445 612.7 38.3969C610.756 36.3489 608.359 34.7131 605.508 33.4895C602.658 32.2787 599.354 31.6733 595.596 31.6733C592.084 31.6733 588.923 32.24 586.111 33.3478C583.299 34.4684 580.902 36.0398 578.919 38.062C576.95 40.0843 575.447 42.493 574.41 45.3009C573.386 48.1218 572.868 51.226 572.868 54.6522Z" fill="#07E897"/>
<path d="M656.367 60.6288C656.367 63.6171 656.794 66.1803 657.636 68.3314C658.479 70.4824 659.658 72.2471 661.161 73.6511C662.664 75.055 664.452 76.0726 666.512 76.7295C668.573 77.3864 670.827 77.7084 673.276 77.7084C678.226 77.7084 682.061 76.459 684.783 73.9731C687.504 71.4871 688.864 67.404 688.864 61.7365V21.9742H700.604V60.5386C700.604 65.3302 699.956 69.4906 698.673 73.007C697.39 76.5234 695.537 79.4344 693.127 81.7401C690.717 84.0457 687.802 85.7459 684.394 86.8279C680.986 87.9227 677.112 88.4637 672.797 88.4637C667.977 88.4637 663.804 87.8197 660.306 86.5445C656.794 85.2693 653.866 83.4532 651.52 81.0831C649.175 78.7131 647.439 75.8665 646.311 72.5433C645.184 69.2201 644.627 65.459 644.627 61.2986V21.9742H656.367V60.6288Z" fill="#07E897"/>
<path d="M741.835 21.9742C754.041 21.9742 763.125 24.6792 769.072 30.1019C775.02 35.5117 778 43.2658 778 53.3513C778 59.3279 777.106 64.4672 775.318 68.7564C773.529 73.0457 771.029 76.575 767.802 79.3056C764.576 82.0492 760.727 84.0714 756.244 85.3724C751.761 86.6862 746.863 87.3302 741.55 87.3302H719.198V21.9742H741.835ZM741.55 76.6007C749.752 76.6007 755.829 74.7073 759.769 70.9075C763.708 67.1077 765.69 61.6335 765.69 54.4719C765.69 47.1944 763.76 41.7459 759.911 38.1265C756.063 34.5199 749.973 32.7166 741.641 32.7166H730.938V76.6007H741.55Z" fill="#07E897"/>
<path d="M172.712 49.2166C164.989 47.4005 158.316 45.8419 158.316 40.4965C158.316 33.322 167.192 32.5492 171.014 32.5492C176.314 32.5492 179.32 33.2705 183.259 35.048C185.177 33.644 193.898 27.2553 193.898 27.2553C188.144 23.6101 179.502 20.7635 171.105 20.7635C151.073 20.7635 143.946 31.3513 143.946 41.2565C143.946 55.5281 156.424 58.4907 167.438 61.1183C175.174 62.9602 181.847 64.5445 181.847 69.993C181.847 72.7881 180.176 77.4637 168.954 77.4637C161.517 77.4637 153.353 74.8618 147.574 70.6628L142.702 81.7272C148.598 86.2998 158.834 89.2365 168.864 89.2365C185.475 89.2365 196.217 81.2248 196.217 68.8337C196.23 54.7295 183.726 51.8056 172.712 49.2166Z" fill="#343F48"/>
<path d="M257.066 53.9567L256.379 53.7248L257.014 53.3771C262.495 50.4274 265.514 45.3009 265.514 38.9508C265.514 28.2728 256.405 21.897 241.141 21.897H209.602V88.0902H243.007C259.618 88.0902 268.766 81.7272 268.766 70.1733C268.766 62.3162 264.503 56.404 257.066 53.9567ZM223.972 32.9227H239.275C248.928 32.9227 250.95 37.3408 250.95 41.0117C250.95 46.3314 246.907 49.1007 239.275 49.1007H223.972V32.9227ZM223.972 49.1136H239.275H223.972ZM241.879 77.0773H223.959V60.1265H241.879C250.056 60.1265 254.202 62.9473 254.202 68.6019C254.215 74.2693 250.185 77.0773 241.879 77.0773Z" fill="#343F48"/>
<path d="M317.448 32.9227L332.492 21.9099H282.139V88.0902H332.492V77.0773H296.509V60.1265H327.192V49.1136H296.509V32.9227H317.448Z" fill="#343F48"/>
<path d="M402.657 88.0902L388.028 66.5925C396.658 62.8443 401.634 55.4766 401.634 45.5972C401.634 30.9906 390.762 21.9099 373.282 21.9099H345.877V88.1031H360.247V69.349H373.295C373.71 69.349 374.112 69.3361 374.513 69.3232L387.277 88.0902H402.657ZM360.234 32.9227H372.971C382.171 32.9227 387.251 37.4309 387.251 45.623C387.251 53.815 382.184 58.3232 372.971 58.3232H360.234V32.9227Z" fill="#343F48"/>
<path fill-rule="evenodd" clip-rule="evenodd" d="M97.9519 55.219C97.9519 78.6137 78.8733 97.5788 55.3386 97.5788C31.804 97.5788 12.7254 78.6137 12.7254 55.219C12.7254 31.8242 31.804 12.8591 55.3386 12.8591C64.3595 12.8591 72.7257 15.6454 79.6138 20.3996L90.0183 12.6427C80.5477 5.01061 68.4804 0.437927 55.3386 0.437927C24.903 0.437927 0.22998 24.9642 0.22998 55.219C0.22998 85.4737 24.903 110 55.3386 110C85.7743 110 110.447 85.4737 110.447 55.219C110.447 51.8007 110.132 48.4555 109.53 45.2106L97.8904 52.924C97.9312 53.6838 97.9519 54.449 97.9519 55.219Z" fill="#343F48"/>
<path fill-rule="evenodd" clip-rule="evenodd" d="M97.9519 55.219C97.9519 78.6137 78.8733 97.5788 55.3386 97.5788C31.804 97.5788 12.7254 78.6137 12.7254 55.219C12.7254 31.8242 31.804 12.8591 55.3386 12.8591C64.3595 12.8591 72.7257 15.6454 79.6138 20.3996L90.0183 12.6427C80.5477 5.01061 68.4804 0.437927 55.3386 0.437927C24.903 0.437927 0.22998 24.9642 0.22998 55.219C0.22998 85.4737 24.903 110 55.3386 110C85.7743 110 110.447 85.4737 110.447 55.219C110.447 51.8007 110.132 48.4555 109.53 45.2106L97.8904 52.924C97.9312 53.6838 97.9519 54.449 97.9519 55.219Z" fill="#343F48"/>
<path fill-rule="evenodd" clip-rule="evenodd" d="M97.9519 55.219C97.9519 78.6137 78.8733 97.5788 55.3386 97.5788C31.804 97.5788 12.7254 78.6137 12.7254 55.219C12.7254 31.8242 31.804 12.8591 55.3386 12.8591C64.3595 12.8591 72.7257 15.6454 79.6138 20.3996L90.0183 12.6427C80.5477 5.01061 68.4804 0.437927 55.3386 0.437927C24.903 0.437927 0.22998 24.9642 0.22998 55.219C0.22998 85.4737 24.903 110 55.3386 110C85.7743 110 110.447 85.4737 110.447 55.219C110.447 51.8007 110.132 48.4555 109.53 45.2106L97.8904 52.924C97.9312 53.6838 97.9519 54.449 97.9519 55.219Z" fill="#343F48"/>
<path d="M99.0393 22.4042C101.618 25.7164 103.814 29.3205 105.576 33.1784L55.9017 69.5747L35.1436 56.6304V41.0846L55.9017 54.0162L99.0393 22.4042Z" fill="#343F48"/>
</svg>
