<svg width="73" height="73" viewBox="0 0 73 73" fill="none" xmlns="http://www.w3.org/2000/svg">
<path fill-rule="evenodd" clip-rule="evenodd" d="M60.807 36.5631C60.807 49.9524 49.9523 60.8072 36.5629 60.8072C23.1736 60.8072 12.3188 49.9524 12.3188 36.5631C12.3188 23.1737 23.1736 12.319 36.5629 12.319C49.9523 12.319 60.807 23.1737 60.807 36.5631ZM40.6358 16.7704C42.3962 19.3264 43.7897 22.4083 44.7368 25.8199C47.1696 25.1071 49.404 24.0779 51.3324 22.7776C48.5274 19.7737 44.8168 17.6262 40.6358 16.7704ZM53.2348 25.1483C55.4627 28.3959 56.7664 32.3273 56.7664 36.5631C56.7664 40.7978 55.4634 44.7283 53.2364 47.9756C50.9552 46.4016 48.3065 45.1754 45.4288 44.3502C45.9071 41.8647 46.1596 39.2471 46.1596 36.5631C46.1596 33.8785 45.907 31.2604 45.4285 28.7744C48.3054 27.9489 50.9535 26.7225 53.2348 25.1483ZM51.3343 50.3464C49.4061 49.0464 47.171 48.0173 44.7372 47.3047C43.7902 50.7169 42.3965 53.7994 40.6358 56.3558C44.8178 55.4997 48.5291 53.3514 51.3343 50.3464ZM32.4901 56.3558C30.7294 53.7994 29.3357 50.7169 28.3887 47.3047C25.9547 48.0172 23.7197 49.0462 21.7914 50.3463C24.5966 53.3514 28.308 55.4997 32.4901 56.3558ZM19.8893 47.9754C22.1706 46.4015 24.8192 45.1753 27.6971 44.3501C27.2188 41.8646 26.9663 39.2471 26.9663 36.5631C26.9663 33.8797 27.2187 31.2627 27.6967 28.7777C24.8186 27.9529 22.1693 26.7271 19.8875 25.1534C17.6618 28.4001 16.3595 32.3295 16.3595 36.5631C16.3595 40.7977 17.6625 44.7282 19.8893 47.9754ZM21.7892 22.7822C23.7181 24.0821 25.9538 25.1109 28.3882 25.8231C29.3353 22.4103 30.7291 19.3272 32.4901 16.7704C28.3069 17.6267 24.5947 19.7759 21.7892 22.7822ZM36.5629 16.4893C38.8465 19.0045 40.6492 22.4809 41.7835 26.5109C40.098 26.8105 38.3455 26.9667 36.5563 26.9667C34.7715 26.9667 33.0233 26.8112 31.3418 26.513C32.407 22.7275 34.062 19.4304 36.1512 16.9594L36.5629 16.4893ZM36.5563 29.9972C34.5379 29.9972 32.5576 29.8162 30.6503 29.4676C30.2239 31.7252 29.9968 34.1104 29.9968 36.5631C29.9968 39.0162 30.224 41.4019 30.6506 43.6597C32.5599 43.3105 34.5427 43.1291 36.5638 43.1291C38.5841 43.1291 40.5664 43.3105 42.4753 43.6597C42.9019 41.4018 43.1291 39.0162 43.1291 36.5631C43.1291 34.1096 42.9018 31.7236 42.4751 29.4654C40.5639 29.8155 38.5792 29.9972 36.5563 29.9972ZM31.3421 46.6143C32.4764 50.6448 34.2792 54.1216 36.5629 56.6369C38.8467 54.1215 40.6496 50.6447 41.7838 46.6143C40.1006 46.3154 38.3505 46.1596 36.5638 46.1596C34.7763 46.1596 33.0257 46.3154 31.3421 46.6143Z" fill="#343F48"/>
</svg>
