<svg width="74" height="74" viewBox="0 0 74 74" fill="none" xmlns="http://www.w3.org/2000/svg">
<path fill-rule="evenodd" clip-rule="evenodd" d="M36.8304 63.0947C51.3356 63.0947 63.0948 51.3363 63.0948 36.8303C63.0948 22.3257 51.335 10.5659 36.8304 10.5659C22.3258 10.5659 10.5659 22.3257 10.5659 36.8303C10.5659 51.3363 22.3251 63.0947 36.8304 63.0947ZM36.8304 14.6065C49.1034 14.6065 59.0541 24.5573 59.0541 36.8303C59.0541 49.1046 49.1041 59.0541 36.8304 59.0541C24.5566 59.0541 14.6066 49.1046 14.6066 36.8303C14.6066 24.5573 24.5574 14.6065 36.8304 14.6065ZM38.8507 34.81H48.9524C50.0682 34.81 50.9727 35.7145 50.9727 36.8303C50.9727 37.9461 50.0682 38.8506 48.9524 38.8506H38.8507V48.9523C38.8507 50.0681 37.9462 50.9727 36.8304 50.9727C35.7146 50.9727 34.81 50.0681 34.81 48.9523V38.8506H24.7083C23.5925 38.8506 22.688 37.9461 22.688 36.8303C22.688 35.7145 23.5925 34.81 24.7083 34.81H34.81V24.7082C34.81 23.5924 35.7146 22.6879 36.8304 22.6879C37.9462 22.6879 38.8507 23.5924 38.8507 24.7082V34.81Z" fill="#343F48"/>
</svg>
