<svg width="118" height="117" viewBox="0 0 118 117" fill="none" xmlns="http://www.w3.org/2000/svg">
<path fill-rule="evenodd" clip-rule="evenodd" d="M103.806 58.6141C103.806 83.2849 83.5995 103.285 58.6734 103.285C33.7473 103.285 13.5406 83.2849 13.5406 58.6141C13.5406 33.9433 33.7473 13.9437 58.6734 13.9437C68.2277 13.9437 77.0885 16.882 84.3838 21.8956L95.4035 13.7155C85.373 5.66713 72.5921 0.845032 58.6734 0.845032C26.4382 0.845032 0.306396 26.7091 0.306396 58.6141C0.306396 90.5191 26.4382 116.383 58.6734 116.383C90.9086 116.383 117.04 90.5191 117.04 58.6141C117.04 55.0094 116.707 51.4818 116.069 48.0598L103.741 56.194C103.784 56.9953 103.806 57.8022 103.806 58.6141Z" fill="#343F48"/>
<path fill-rule="evenodd" clip-rule="evenodd" d="M103.806 58.6141C103.806 83.2849 83.5995 103.285 58.6734 103.285C33.7473 103.285 13.5406 83.2849 13.5406 58.6141C13.5406 33.9433 33.7473 13.9437 58.6734 13.9437C68.2277 13.9437 77.0885 16.882 84.3838 21.8956L95.4035 13.7155C85.373 5.66713 72.5921 0.845032 58.6734 0.845032C26.4382 0.845032 0.306396 26.7091 0.306396 58.6141C0.306396 90.5191 26.4382 116.383 58.6734 116.383C90.9086 116.383 117.04 90.5191 117.04 58.6141C117.04 55.0094 116.707 51.4818 116.069 48.0598L103.741 56.194C103.784 56.9953 103.806 57.8022 103.806 58.6141Z" fill="#343F48"/>
<path fill-rule="evenodd" clip-rule="evenodd" d="M103.806 58.6141C103.806 83.2849 83.5995 103.285 58.6734 103.285C33.7473 103.285 13.5406 83.2849 13.5406 58.6141C13.5406 33.9433 33.7473 13.9437 58.6734 13.9437C68.2277 13.9437 77.0885 16.882 84.3838 21.8956L95.4035 13.7155C85.373 5.66713 72.5921 0.845032 58.6734 0.845032C26.4382 0.845032 0.306396 26.7091 0.306396 58.6141C0.306396 90.5191 26.4382 116.383 58.6734 116.383C90.9086 116.383 117.04 90.5191 117.04 58.6141C117.04 55.0094 116.707 51.4818 116.069 48.0598L103.741 56.194C103.784 56.9953 103.806 57.8022 103.806 58.6141Z" fill="#343F48"/>
<path d="M104.958 24.0094C107.689 27.5023 110.015 31.303 111.881 35.3713L59.2697 73.7529L37.2842 60.1025V43.7087L59.2697 57.3457L104.958 24.0094Z" fill="#343F48"/>
</svg>
