<svg xmlns="http://www.w3.org/2000/svg" viewBox="0 0 24 24"><defs><style>.cls-1{fill:#343f48;}</style></defs><g id="Слой_2" data-name="Слой 2"><g id="Слой_1-2" data-name="Слой 1"><g id="Сгруппировать_11" data-name="Сгруппировать 11"><path id="Контур_7" data-name="Контур 7" class="cls-1" d="M10.5,15.75a.75.75,0,0,1,.75.69h0v6.87a.75.75,0,0,1-.75.69H.75A.75.75,0,0,1,0,23.31H0V16.44a.75.75,0,0,1,.75-.69Zm12.75-6a.76.76,0,0,1,.75.75h0V23.25a.76.76,0,0,1-.75.75H13.5a.76.76,0,0,1-.75-.75h0V10.5a.76.76,0,0,1,.75-.75ZM9.75,17.12H1.5v5.51H9.75ZM22.5,11.25H14.25V22.5H22.5ZM10.5,0a.76.76,0,0,1,.75.75h0V13.5a.76.76,0,0,1-.75.75H.75A.76.76,0,0,1,0,13.5H0V.75A.76.76,0,0,1,.75,0ZM9.75,1.5H1.5V12.75H9.75ZM23.25,0A.75.75,0,0,1,24,.69h0V7.56a.75.75,0,0,1-.75.69H13.5a.75.75,0,0,1-.75-.69h0V.69A.75.75,0,0,1,13.5,0ZM22.5,1.37H14.25v5.5H22.5Z"/></g></g></g></svg>